#!OML:ASF H:\ManfredETheater\Project 1\Capture day 1\Session 1\subject.ASF
:FULLY-SPECIFIED
:DEGREES
313
root 0.237204 15.8714 34.4438 14.318 7.05624 -7.953
lowerback 19.1085 0.110024 9.43441
upperback 0.0678376 2.92088 6.0834
thorax -10.5969 1.07276 0.569467
lowerneck -22.6995 13.4474 5.214
upperneck -2.74855 43.9747 -4.24354
head 33.5195 -48.4153 151.151
rclavicle -1.63003e-014 -1.11319e-014
rhumerus -21.1378 -0.137682 -70.706
rradius 74.0954
rwrist -5.8018
rhand -20.9183 7.34084
rfingers 7.12502
rthumb 5.45323 -22.569
lclavicle -1.63003e-014 -1.11319e-014
lhumerus -64.0328 -20.7939 95.7615
lradius 75.8421
lwrist 0.0575048
lhand -23.6019 -19.9173
lfingers 7.12502
lthumb 2.86182 10.0433
rfemur -17.8619 -0.171262 22.6041
rtibia 51.5826
rfoot -23.3714 -18.0536
rtoes -37.6636
lfemur -55.6264 5.15723 -20.2268
ltibia 91.5797
lfoot -13.9549 -7.58159
ltoes 0.144119
314
root 0.270318 15.943 34.8985 14.0623 7.01092 -8.00818
lowerback 18.7731 0.429413 9.29461
upperback 0.116973 3.24432 5.97337
thorax -10.3313 1.23922 0.438856
lowerneck -22.5894 13.164 5.19085
upperneck -2.72395 43.807 -4.22114
head 33.295 -48.2433 151.526
rclavicle 2.38542e-015 -3.97569e-014
rhumerus -20.8771 0.708201 -71.3571
rradius 74.5176
rwrist -5.82616
rhand -21.1144 7.87414
rfingers 7.12502
rthumb 5.26392 -22.0405
lclavicle 2.38542e-015 -3.97569e-014
lhumerus -65.3428 -20.8868 95.8124
lradius 76.7258
lwrist 1.04215
lhand -23.7225 -19.7655
lfingers 7.12502
lthumb 2.7454 10.1966
rfemur -14.8685 -0.0643562 22.7466
rtibia 49.1497
rfoot -21.959 -17.7112
rtoes -36.3256
lfemur -57.1708 5.40636 -20.8215
ltibia 88.4457
lfoot -14.6497 -7.14477
ltoes -0.491492
315
root 0.305873 16.0118 35.3581 13.7963 6.91506 -8.07009
lowerback 18.4252 0.751045 9.15319
upperback 0.168818 3.56933 5.85602
thorax -10.0555 1.40741 0.305886
lowerneck -22.4343 12.8945 5.20358
upperneck -2.68726 43.6475 -4.18377
head 33.0762 -48.0656 151.906
rclavicle -2.54444e-014 -1.27222e-014
rhumerus -20.6044 1.468 -72.0501
rradius 74.6503
rwrist -5.89103
rhand -21.1702 8.21934
rfingers 7.12502
rthumb 5.21003 -21.6966
lclavicle -2.54444e-014 -1.27222e-014
lhumerus -66.6568 -20.86 95.8292
lradius 77.6283
lwrist 1.91293
lhand -23.96 -19.5872
lfingers 7.12502
lthumb 2.51601 10.3777
rfemur -11.8196 0.070561 22.8766
rtibia 46.585
rfoot -20.4252 -17.3502
rtoes -34.6057
lfemur -58.4479 5.62923 -21.3383
ltibia 84.9459
lfoot -15.1469 -6.57977
ltoes -0.731087
316
root 0.34326 16.0755 35.8213 13.5416 6.78682 -8.15161
lowerback 18.0463 1.07261 9.02638
upperback 0.212664 3.89542 5.7336
thorax -9.77021 1.57626 0.165076
lowerneck -22.2328 12.6422 5.26215
upperneck -2.64125 43.5096 -4.1335
head 32.8487 -47.8581 152.316
rclavicle 5.1684e-014 3.02153e-014
rhumerus -20.3274 2.14188 -72.7878
rradius 74.5121
rwrist -5.95853
rhand -21.1119 8.38154
rfingers 7.12502
rthumb 5.26626 -21.533
lclavicle 5.1684e-014 3.02153e-014
lhumerus -67.9685 -20.7384 95.8122
lradius 78.5486
lwrist 2.66282
lhand -24.2542 -19.3657
lfingers 7.12502
lthumb 2.23181 10.6024
rfemur -8.75348 0.234403 23.015
rtibia 43.9223
rfoot -18.8525 -17.0713
rtoes -32.5642
lfemur -59.5022 5.81656 -21.7439
ltibia 81.1159
lfoot -15.4177 -5.99318
ltoes -0.662262
317
root 0.381967 16.1319 36.2871 13.2995 6.62107 -8.2687
lowerback 17.6358 1.39965 8.92284
upperback 0.24653 4.23224 5.61019
thorax -9.47619 1.75009 0.0143179
lowerneck -21.9893 12.4058 5.36439
upperneck -2.5861 43.4014 -4.07209
head 32.6024 -47.5975 152.769
rclavicle 2.34566e-014 6.52014e-014
rhumerus -20.0508 2.742 -73.5629
rradius 74.1246
rwrist -6.01299
rhand -20.9816 8.39666
rfingers 7.12502
rthumb 5.39214 -21.5147
lclavicle 2.34566e-014 6.52014e-014
lhumerus -69.2681 -20.5379 95.7633
lradius 79.49
lwrist 3.31607
lhand -24.5325 -19.1183
lfingers 7.12502
lthumb 1.96307 10.8524
rfemur -5.68943 0.434635 23.1811
rtibia 41.2072
rfoot -17.3043 -16.9691
rtoes -30.2779
lfemur -60.3454 5.96318 -21.9966
ltibia 76.9931
lfoot -15.3958 -5.49722
ltoes -0.359181
